<svg xmlns="http://www.w3.org/2000/svg" width="1600" height="900" viewBox="0 0 1600 900"><rect width="1600" height="900" fill="#fbfaf6"/><rect x="42" y="42" width="1516" height="816" rx="28" fill="#fff" stroke="#b9824b" stroke-width="3"/><rect x="42" y="42" width="1516" height="150" rx="28" fill="#102a2e"/><rect x="42" y="162" width="1516" height="30" fill="#102a2e"/><text x="88" y="92" fill="#d2a06b" font-family="Arial" font-size="24" font-weight="700" letter-spacing="5">IMPORTANT NOTICE</text><text x="88" y="145" fill="#fff" font-family="Georgia" font-size="44" font-weight="700">Infrastructure &amp; Survey Details</text><text x="1510" y="94" text-anchor="end" fill="#d2a06b" font-family="Arial" font-size="18" font-weight="700">NIPE</text><text x="1510" y="126" text-anchor="end" fill="#dfe9df" font-family="Arial" font-size="15">Noble Institute of Physical Education</text><rect x="88" y="225" width="1424" height="82" fill="#173f3a"/><g fill="#fff" font-family="Arial" font-size="19" font-weight="700"><text x="112" y="274">Sr. No.</text><text x="220" y="260">Programme /</text><text x="220" y="284">Institution</text><text x="575" y="274">Status</text><text x="730" y="274">Survey No.</text><text x="870" y="260">Building /</text><text x="870" y="284">Area</text><text x="1190" y="260">Affiliating</text><text x="1190" y="284">Body</text></g><g stroke="#d7ddd7" stroke-width="2"><line x1="88" y1="307" x2="1512" y2="307"/><line x1="88" y1="443" x2="1512" y2="443"/><line x1="88" y1="579" x2="1512" y2="579"/><line x1="88" y1="715" x2="1512" y2="715"/><line x1="188" y1="225" x2="188" y2="715"/><line x1="545" y1="225" x2="545" y2="715"/><line x1="700" y1="225" x2="700" y2="715"/><line x1="840" y1="225" x2="840" y2="715"/><line x1="1160" y1="225" x2="1160" y2="715"/></g><g fill="#fbfaf6"><rect x="88" y="307" width="1424" height="136"/><rect x="88" y="579" width="1424" height="136"/></g><g fill="#182426" font-family="Arial" font-size="18"><text x="124" y="385" font-weight="700">01</text><text x="220" y="370" font-weight="700">B.P.Ed.</text><text x="220" y="397">Bachelor of Physical Education</text><text x="575" y="385" fill="#8b6239" font-weight="700">PROPOSED</text><text x="730" y="385" font-weight="700">1698</text><text x="870" y="370">B.P.Ed.</text><text x="870" y="397">Building</text><text x="1190" y="370">NCTE – Fresh</text><text x="1190" y="397">Recognition Applied</text><text x="124" y="521" font-weight="700">02</text><text x="220" y="506" font-weight="700">B.P.Ed. / Physical</text><text x="220" y="533">Education</text><text x="575" y="521" fill="#8b6239" font-weight="700">PROPOSED</text><text x="730" y="521" font-weight="700">970 &amp; 972</text><text x="870" y="506">Sports Ground /</text><text x="870" y="533">Physical Activities</text><text x="1190" y="521">NCTE Norms</text><text x="124" y="657" font-weight="700">03</text><text x="220" y="657" font-weight="700">Noble Public School</text><text x="575" y="657" fill="#52705b" font-weight="700">ONGOING</text><text x="730" y="657" font-weight="700">994/1</text><text x="870" y="657">School Building</text><text x="1190" y="657">GSHEB</text><text x="124" y="793" font-weight="700">04</text><text x="220" y="778" font-weight="700">Master of Social Work</text><text x="220" y="805">(MSW)</text><text x="575" y="793" fill="#52705b" font-weight="700">ONGOING</text><text x="730" y="793" font-weight="700">994/1</text><text x="870" y="793">MSW Building</text><text x="1190" y="778">SGGU,</text><text x="1190" y="805">Godhra</text></g></svg>